<svg width="1105.38" height="1158.55" xmlns="http://www.w3.org/2000/svg" xmlns:svg="http://www.w3.org/2000/svg">
 <defs>
  <style>.cls-1{fill:#fff;stroke:#231f20;stroke-miterlimit:10;}</style>
 </defs>
 <g class="layer">
  <title>Layer 1</title>
  <path d="m323.54402,586.80683l-7.69416,-26.92956c2.25484,-1.97793 4.37123,-4.09432 6.36895,-6.35906l26.90979,7.69416c2.83833,-4.13388 5.28108,-8.52489 7.4667,-13.08403l-20.02658,-19.38375c0.9593,-2.84822 1.79003,-5.7459 2.38341,-8.73258l26.9889,-6.76453c0.19779,-2.4922 0.3857,-4.99428 0.3857,-7.54582s-0.19779,-5.04373 -0.3857,-7.53593l-26.9889,-6.76453c-0.60327,-2.98668 -1.434,-5.88435 -2.38341,-8.73258l20.03647,-19.38375c-2.19551,-4.54925 -4.63825,-8.95015 -7.47659,-13.08403l-26.90979,7.68427c-1.98782,-2.25484 -4.1141,-4.37123 -6.36895,-6.35906l7.69416,-26.91967c-4.13388,-2.82844 -8.53478,-5.28108 -13.09392,-7.4667l-19.38375,20.03647c-2.83833,-0.9593 -5.7459,-1.78014 -8.73258,-2.38341l-6.75464,-26.99879c-2.50209,-0.1879 -4.99428,-0.3857 -7.54582,-0.3857s-5.04373,0.19779 -7.53593,0.3857l-6.76453,26.99879c-2.98668,0.60327 -5.88435,1.42411 -8.73258,2.38341l-19.38375,-20.03647c-4.54925,2.21529 -8.94026,4.65803 -13.07414,7.49637l7.69416,26.91967c-2.25484,1.97793 -4.38112,4.10421 -6.35906,6.34917l-26.91967,-7.69416c-2.83833,4.13388 -5.28108,8.53478 -7.4667,13.09392l20.03647,19.38375c-0.94941,2.84822 -1.78014,5.7459 -2.38341,8.73258l-26.99879,6.76453c-0.1879,2.4922 -0.3857,4.99428 -0.3857,7.53593s0.19779,5.04373 0.3857,7.54582l26.99879,6.76453c0.60327,2.98668 1.434,5.88435 2.38341,8.73258l-20.03647,19.38375c2.18562,4.54925 4.62836,8.95015 7.4667,13.08403l26.91967,-7.69416c1.97793,2.26473 4.10421,4.37123 6.35906,6.35906l-7.69416,26.92956c4.13388,2.82844 8.53478,5.27119 13.08403,7.4667l19.38375,-20.03647c2.84822,0.9593 5.7459,1.79003 8.73258,2.38341l6.76453,26.9889c2.4922,0.19779 4.99428,0.3857 7.54582,0.3857s5.04373,-0.19779 7.54582,-0.3857l6.75464,-26.9889c2.98668,-0.60327 5.89424,-1.434 8.73258,-2.38341l19.38375,20.03647c4.53936,-2.21529 8.94026,-4.65803 13.07414,-7.48648zm-55.50081,-47.48029c-18.56291,0 -33.61498,-15.05207 -33.61498,-33.61498s15.05207,-33.60509 33.61498,-33.60509s33.60509,15.04218 33.60509,33.60509s-15.04218,33.61498 -33.60509,33.61498zm153.21073,70.26609c0.1879,-5.40965 -0.59338,-10.91819 -2.27462,-16.35751l12.30275,-17.53438c-1.85926,-3.46138 -3.95587,-6.74475 -6.33928,-9.73143l-20.98587,4.4009c-4.23278,-3.59984 -9.04905,-6.4085 -14.20156,-8.41611l-6.04259,-20.56062c-3.81741,-0.6725 -7.68427,-1.03842 -11.60058,-1.0483l-9.63254,19.1464c-2.75922,0.53404 -5.51843,1.26588 -8.2282,2.30429c-2.54164,0.96919 -4.91516,2.17573 -7.18979,3.49105l-19.83867,-8.09964c-2.93723,2.59109 -5.61733,5.38987 -8.0403,8.426l8.96993,19.46287c-2.56142,4.89539 -4.32178,10.16658 -5.13274,15.67512l-18.70136,10.48305c0.1879,3.83719 0.75161,7.67438 1.62191,11.52146l20.80786,5.13274c2.28451,5.18219 5.35031,9.82044 9.05894,13.77631l-3.48116,21.14411c3.16469,2.27462 6.52718,4.23278 10.01823,5.9338l16.96078,-13.05436c5.30086,1.39444 10.84897,1.92849 16.43663,1.48345l14.3598,15.8927c1.97793,-0.56371 3.94598,-1.16698 5.89424,-1.90871c1.73069,-0.65272 3.36249,-1.42411 4.99428,-2.2054l0.36592,-21.41113c4.4998,-3.3526 8.33699,-7.38758 11.3929,-11.92694l21.37157,-1.32522c1.50323,-3.55039 2.75922,-7.23924 3.6394,-11.02698l-16.50585,-13.66752zm-41.17069,19.84856c-11.87749,4.52947 -25.1692,-1.42411 -29.70856,-13.3016s1.41422,-25.17909 13.29171,-29.71845c11.87749,-4.52947 25.18898,1.42411 29.72834,13.3016c4.52947,11.87749 -1.434,25.17909 -13.31149,29.71845z" fill="black" id="svg_1"/>
 </g>
</svg>