<svg xmlns="http://www.w3.org/2000/svg" viewBox="0 0 1105.38 1158.55"><defs><style>.cls-1{fill:#fff;stroke:#231f20;stroke-miterlimit:10;}</style></defs><g id="Layer_2" data-name="Layer 2"><g id="Layer_1-2" data-name="Layer 1"><path class="cls-1" d="M341.07,952.71c143.76-99.92-1.69-485.52,90.47-523.81,76.62-31.83,215.72,218.58,300,185.72,93.65-36.52-7.3-373.18,95.24-419,62.47-27.95,189.8,56.79,223.81,176.19,29.08,102.07-10.17,229-90.47,261.9C857.74,675.56,714,554.07,664.88,428.9,610.72,291,648.39,90.35,788.69,24.14,909.75-33,1082.46,21.69,1103,100.33S973.52,211.88,898.21,371.76c-122.52,260.1,121.5,497.71-4.76,652.38-91.88,112.56-312.14,98.23-323.81,66.67-4-11,36.92-47.15,119.05-119,68.86-60.29,84.35-69.7,90.47-95.24,13.47-56.19-32.62-131.34-95.23-157.14-82.48-34-184.7,21.34-228.58,90.47-52.65,83,6.24,142.49-42.85,228.58C367.19,1117.88,250.41,1184,145.83,1148,42.13,1112.19-21.82,985.51,7.73,943.19,48.14,885.33,233.8,1027.28,341.07,952.71Z"/></g></g></svg>