 <svg width="283" height="267" viewBox="0 0 283 267" fill="none" xmlns="http://www.w3.org/2000/svg">
          <g clip-path="url(#clip0)" filter="url(#filter0_i)">
          <g style="mix-blend-mode:difference">
          <path d="M87.1935 219.447C123.999 196.419 86.7608 107.554 110.356 98.7296C129.972 91.394 165.584 149.104 187.162 141.531C211.138 133.114 185.293 55.5274 211.545 44.9678C227.539 38.5264 260.138 58.0556 268.845 85.5726C276.29 109.096 266.241 138.348 245.683 145.93C219.472 155.575 182.671 127.576 170.096 98.7296C156.229 66.9491 165.874 20.7072 201.793 5.44839C232.787 -7.72012 277.005 4.88377 282.263 23.0072C287.522 41.1306 249.114 48.715 229.833 85.5611C198.465 145.504 260.939 200.264 228.614 235.909C205.091 261.849 148.7 258.547 145.712 251.274C144.688 248.739 155.164 240.407 176.191 223.849C193.821 209.954 197.787 207.786 199.354 201.9C202.802 188.95 191.002 171.631 174.973 165.685C153.856 157.85 127.686 170.603 116.452 186.535C102.972 205.663 118.049 219.373 105.481 239.214C93.8808 257.512 63.9827 272.75 37.2081 264.454C10.6587 256.201 -5.71379 227.006 1.85162 217.253C12.1974 203.919 59.7302 236.632 87.1935 219.447Z" fill="#703784"/>
          <path d="M87.1935 219.447C123.999 196.419 86.7608 107.554 110.356 98.7296C129.972 91.394 165.584 149.104 187.162 141.531C211.138 133.114 185.293 55.5274 211.545 44.9678C227.539 38.5264 260.138 58.0556 268.845 85.5726C276.29 109.096 266.241 138.348 245.683 145.93C219.472 155.575 182.671 127.576 170.096 98.7296C156.229 66.9491 165.874 20.7072 201.793 5.44839C232.787 -7.72012 277.005 4.88377 282.263 23.0072C287.522 41.1306 249.114 48.715 229.833 85.5611C198.465 145.504 260.939 200.264 228.614 235.909C205.091 261.849 148.7 258.547 145.712 251.274C144.688 248.739 155.164 240.407 176.191 223.849C193.821 209.954 197.787 207.786 199.354 201.9C202.802 188.95 191.002 171.631 174.973 165.685C153.856 157.85 127.686 170.603 116.452 186.535C102.972 205.663 118.049 219.373 105.481 239.214C93.8808 257.512 63.9827 272.75 37.2081 264.454C10.6587 256.201 -5.71379 227.006 1.85162 217.253C12.1974 203.919 59.7302 236.632 87.1935 219.447Z" fill="url(#paint0_linear)"/>
          <path d="M87.1935 219.447C123.999 196.419 86.7608 107.554 110.356 98.7296C129.972 91.394 165.584 149.104 187.162 141.531C211.138 133.114 185.293 55.5274 211.545 44.9678C227.539 38.5264 260.138 58.0556 268.845 85.5726C276.29 109.096 266.241 138.348 245.683 145.93C219.472 155.575 182.671 127.576 170.096 98.7296C156.229 66.9491 165.874 20.7072 201.793 5.44839C232.787 -7.72012 277.005 4.88377 282.263 23.0072C287.522 41.1306 249.114 48.715 229.833 85.5611C198.465 145.504 260.939 200.264 228.614 235.909C205.091 261.849 148.7 258.547 145.712 251.274C144.688 248.739 155.164 240.407 176.191 223.849C193.821 209.954 197.787 207.786 199.354 201.9C202.802 188.95 191.002 171.631 174.973 165.685C153.856 157.85 127.686 170.603 116.452 186.535C102.972 205.663 118.049 219.373 105.481 239.214C93.8808 257.512 63.9827 272.75 37.2081 264.454C10.6587 256.201 -5.71379 227.006 1.85162 217.253C12.1974 203.919 59.7302 236.632 87.1935 219.447Z" stroke="#231F20" stroke-miterlimit="10"/>
          </g>
          </g>
          <defs>
          <filter id="filter0_i" x="0" y="0" width="283" height="271" filterUnits="userSpaceOnUse" color-interpolation-filters="sRGB">
          <feFlood flood-opacity="0" result="BackgroundImageFix"/>
          <feBlend mode="normal" in="SourceGraphic" in2="BackgroundImageFix" result="shape"/>
          <feColorMatrix in="SourceAlpha" type="matrix" values="0 0 0 0 0 0 0 0 0 0 0 0 0 0 0 0 0 0 127 0" result="hardAlpha"/>
          <feOffset dy="4"/>
          <feGaussianBlur stdDeviation="2"/>
          <feComposite in2="hardAlpha" operator="arithmetic" k2="-1" k3="1"/>
          <feColorMatrix type="matrix" values="0 0 0 0 0 0 0 0 0 0 0 0 0 0 0 0 0 0 0.25 0"/>
          <feBlend mode="normal" in2="shape" result="effect1_innerShadow"/>
          </filter>
          <linearGradient id="paint0_linear" x1="141.376" y1="0" x2="141.376" y2="266.775" gradientUnits="userSpaceOnUse">
          <stop stop-color="white"/>
          <stop offset="1" stop-color="white" stop-opacity="0"/>
          </linearGradient>
          <clipPath id="clip0">
          <rect width="283" height="267" fill="white"/>
          </clipPath>
          </defs>
          </svg>