<svg width="80" height="80" xmlns="http://www.w3.org/2000/svg" xmlns:svg="http://www.w3.org/2000/svg" version="1.1">
 <metadata>Svg Vector Icons : http://www.onlinewebfonts.com/icon</metadata>

 <g class="layer">
  <title>Layer 1</title>
  <g id="svg_1">
   <g id="svg_2" transform="translate(0, 511) scale(0.1, -0.1)">
    <path d="m261.16484,5062.88914c-9.96652,-3.37872 -14.96017,-10.00946 -16.15407,-21.49712c-1.79605,-19.87815 4.78601,-30.02135 21.73948,-33.12555l7.77596,-1.48523l0,-95.06879l0,-94.92801l-107.898,-171.72354c-59.43578,-94.37896 -110.08856,-175.78504 -112.47637,-181.05726c-6.58206,-13.65567 -7.97322,-25.01662 -4.18386,-36.91254c7.97322,-25.82611 35.49536,-43.81076 76.18161,-49.62498c20.54557,-2.9775 527.49902,-2.9775 548.04459,0c61.82359,8.92546 92.74058,47.33026 71.19835,88.57179c-1.9933,4.05447 -52.44883,84.65106 -111.68735,179.03002l-107.898,171.58276l0,95.06175l0,95.05471l7.77596,1.48523c11.56532,2.02723 19.54892,8.92546 21.13734,18.39292c2.19056,11.49469 0.19725,23.93261 -4.78601,29.33857c-8.57536,9.33372 -2.98996,9.0592 -150.17267,9.0592c-117.06512,0.00704 -133.01156,-0.26748 -138.59697,-2.15394zm206.80536,-154.82993l0,-98.84169l111.08521,-176.72827c61.02419,-97.08898 112.27912,-179.84655 113.87791,-183.90101c5.78266,-15.28168 -3.5921,-27.7196 -24.12729,-31.9078c-15.15742,-3.11124 -522.12125,-3.11124 -537.27867,0c-19.74617,3.92073 -30.11759,16.76691 -24.92669,30.83084c1.19391,3.11124 11.56532,20.68763 22.93339,38.80603c11.56532,18.25214 61.82359,98.30673 111.88461,178.0868l90.94453,144.82047l0,98.84873l0,98.83465l67.8035,0l67.8035,0l0,-98.84873z" id="svg_3"/>
    <path d="m281.10827,4676.70123c-4.78601,-4.32899 -144.78452,-229.59823 -145.58391,-234.60296c-0.99665,-5.54674 -0.99665,-5.68048 6.58206,-7.03196c10.97356,-2.02723 505.16777,-2.02723 516.14133,0c7.57871,1.35149 7.57871,1.49227 6.58206,7.03196c-0.80978,4.99769 -140.61103,230.27397 -145.60468,234.60296c-1.40154,1.21775 -27.71939,1.62601 -119.05843,1.62601c-91.33903,-0.00704 -117.66727,-0.40826 -119.05843,-1.62601zm144.19275,-62.74568c40.489,-16.90065 22.73613,-59.22618 -25.12394,-59.22618c-50.25827,0 -66.21509,45.29599 -21.54223,60.71141c14.75253,5.00473 32.70266,4.46273 46.66617,-1.48523zm-119.26606,-65.30788c36.49201,-12.71244 24.92669,-48.81549 -15.55193,-48.81549c-13.16412,0 -22.34162,2.9775 -30.70935,10.00946c-8.18085,6.75744 -9.57202,19.2024 -3.39485,27.45211c9.16713,12.29714 32.10051,17.43561 49.65613,11.35391zm128.43319,-33.66756c6.58206,-4.87099 7.57871,-6.35622 7.57871,-12.0367c0,-11.90296 -10.97356,-19.74441 -27.91665,-19.87815c-15.95682,-0.13374 -28.12428,7.84145 -28.32154,18.39292c-0.39451,12.43792 12.96686,20.68763 31.11424,19.60363c8.57536,-0.542 10.96318,-1.35149 17.54523,-6.0817z" id="svg_4"/>
   </g>
  </g>
 </g>
</svg>